<?xml version="1.0" encoding="UTF-8"?>
<!DOCTYPE svg PUBLIC "-//W3C//DTD SVG 1.1//EN" "http://www.w3.org/Graphics/SVG/1.1/DTD/svg11.dtd">
<!-- Creator: CorelDRAW 2021.5 -->
<svg xmlns="http://www.w3.org/2000/svg" xml:space="preserve" width="65.5674mm" height="21.4298mm" version="1.1" style="shape-rendering:geometricPrecision; text-rendering:geometricPrecision; image-rendering:optimizeQuality; fill-rule:evenodd; clip-rule:evenodd"
viewBox="0 0 6556.74 2142.98"
 xmlns:xlink="http://www.w3.org/1999/xlink"
 xmlns:xodm="http://www.corel.com/coreldraw/odm/2003">
 <defs>
  <style type="text/css">
   <![CDATA[
    .fil0 {fill:white;fill-rule:nonzero}
   ]]>  
  </style>
 </defs>
 <g id="Layer_x0020_1">
  <metadata id="CorelCorpID_0Corel-Layer"/>
  <g id="_105553194411584">
   <g id="Layer_2" data-name="Layer 2">
    <g id="Layer_1-2" data-name="Layer 1">
     <path class="fil0" d="M2574.32 1576.07c3.7,0 5.56,1.85 5.56,5.82l0 31.22c0.03,0.17 0.04,0.35 0.04,0.54 0,2.78 -2.25,5.03 -5.03,5.03 -0.19,0 -0.37,-0.01 -0.56,-0.03l-83.35 0.01 0 242.62c0.03,0.18 0.04,0.36 0.04,0.55 0,2.78 -2.25,5.03 -5.03,5.03 -0.19,0 -0.37,-0.01 -0.56,-0.03l-37.32 0.01c-0.26,0.04 -0.54,0.06 -0.82,0.06 -2.78,0 -5.03,-2.25 -5.03,-5.03 0,-0.2 0.01,-0.4 0.04,-0.6l-0.01 -243.66 -82.81 0c-0.18,0 -0.36,0.01 -0.55,0.01 -2.78,0 -5.03,-2.25 -5.03,-5.03 0,-0.19 0.01,-0.37 0.03,-0.56l-0.01 -30.14c0,-3.97 1.85,-5.82 5.56,-5.82l214.84 0z"/>
     <path class="fil0" d="M2831.5 1658.88c4.23,0 6.09,3.44 6.09,6.88l0 23.28c-0.01,4.24 -2.13,6.09 -6.36,5.56l-33.34 0c-23.02,0 -29.63,3.97 -29.63,20.64l0 146.05c0.03,0.17 0.04,0.35 0.04,0.54 0,2.78 -2.25,5.03 -5.03,5.03 -0.19,0 -0.37,-0.01 -0.56,-0.03l-34.67 0.01c-0.26,0.04 -0.54,0.06 -0.82,0.06 -2.78,0 -5.03,-2.25 -5.03,-5.03 0,-0.2 0.01,-0.4 0.04,-0.6l0 -158.75c-0.17,-1.56 -0.27,-3.13 -0.27,-4.69 0,-15.46 8.7,-29.61 22.5,-36.59 11.55,-4.82 23.96,-7.31 36.48,-7.31 1.86,0 3.74,0.06 5.59,0.16 0.92,0.01 1.91,-0.01 2.85,-0.01 14.17,0 28.32,1.63 42.13,4.79l-0.01 0.01z"/>
     <path class="fil0" d="M3152.44 1656.76c0.2,-0.04 0.38,-0.05 0.57,-0.05 2.78,0 5.03,2.25 5.03,5.03 0,0.19 -0.01,0.37 -0.03,0.56l-0.02 193.43c0,5.03 -1.85,5.29 -5.56,6.09 -25.04,4.2 -50.54,6.41 -75.99,6.41 -2.87,0 -5.85,-0.11 -8.67,-0.11 -38.1,0 -56.09,-2.12 -71.17,-15.61 -15.08,-13.49 -19.05,-34.13 -19.05,-74.88l0 -115.31c0,-3.7 2.38,-5.56 6.61,-5.56l34.13 0c0.21,-0.04 0.41,-0.05 0.61,-0.05 2.63,0 4.76,2.13 4.76,4.76 0,0.28 -0.02,0.56 -0.07,0.83l0 107.69c0,28.84 0,42.6 9,50.54 9,7.94 15.35,8.2 35.45,8.2l43.65 0.01 0 -166.42c0,-3.7 1.85,-5.56 5.82,-5.56l34.93 0z"/>
     <path class="fil0" d="M3473.12 1675.81c14.02,16.14 17.99,39.16 18.26,82.02l0 11.38c0,7.67 -2.65,10.32 -12.96,10.32l-120.39 0c-0.14,1.79 -0.23,3.64 -0.23,5.46 0,12.21 3.48,24.17 10.02,34.47 9.22,6.66 20.32,10.24 31.7,10.24 2.31,0 4.63,-0.15 6.92,-0.44l65.09 0.01c0.2,-0.05 0.4,-0.06 0.6,-0.06 2.78,0 5.03,2.25 5.03,5.03 0,0.28 -0.02,0.56 -0.07,0.83l0 23.55c0.01,0.18 0.02,0.37 0.02,0.55 0,3.02 -2.31,5.54 -5.32,5.8 -20.4,2.8 -41.12,4.28 -61.74,4.28 -2.08,0 -4.21,-0.05 -6.23,-0.05 -4.17,0.55 -8.38,0.84 -12.58,0.84 -22.07,0 -43.47,-7.69 -60.48,-21.73 -12.11,-21.6 -18.49,-45.99 -18.49,-70.75 0,-4.99 0.26,-10.04 0.78,-14.99 -0.58,-5.24 -0.89,-10.57 -0.89,-15.87 0,-24.55 6.33,-48.72 18.35,-70.11 17.09,-14.2 38.64,-21.98 60.86,-21.98 4.15,0 8.33,0.28 12.43,0.81 35.45,-0.51 55.56,3.99 69.32,20.39zm-105.83 29.64c-6.23,10.61 -9.52,22.75 -9.52,35.09 0,1.96 0.08,3.94 0.25,5.9l87.05 0.02c0.24,-2.33 0.36,-4.67 0.36,-7 0,-11.94 -3.14,-23.68 -9.09,-34.03 -7.56,-7.22 -17.64,-11.26 -28.11,-11.26 -1.92,0 -3.85,0.14 -5.75,0.41 -2.06,-0.3 -4.13,-0.45 -6.2,-0.45 -10.74,0 -21.09,4.03 -28.99,11.3l0 0.02z"/>
     <path class="fil0" d="M4194.9 1576.07c4.76,0 5.29,0 5.03,6.09l-49.48 241.83c-1.39,13.57 -6.64,26.53 -15.07,37.28 -9.68,5.08 -20.46,7.74 -31.39,7.74 -2.24,0 -4.49,-0.12 -6.71,-0.34 -2.8,0.32 -5.63,0.49 -8.45,0.49 -11.29,0 -22.45,-2.62 -32.56,-7.63 -8.55,-10.87 -14.04,-23.86 -15.88,-37.56l-37.84 -158.75 -37.57 158.75c-12.44,42.6 -11.38,42.6 -57.41,44.71 -2.18,0.21 -4.39,0.32 -6.59,0.32 -10.8,0 -21.45,-2.66 -30.98,-7.74 -8.07,-10.84 -12.86,-23.81 -13.77,-37.3l-49.48 -241.83c0,-4.76 0,-6.09 5.03,-6.09l39.43 0.03c3.44,0 4.23,0 5.29,6.09l44.98 223.04c2.65,13.49 4.76,16.14 11.38,16.14 6.62,0 9,-2.38 13.23,-16.14l52.92 -211.67c0.39,-3.49 3.34,-6.11 6.83,-6.11 0.1,0 0.21,0 0.31,0.01l37.3 0.01c0.1,-0.02 0.21,-0.02 0.31,-0.02 3.5,0 6.44,2.62 6.83,6.09l52.92 211.67c3.44,13.76 5.29,16.14 13.23,16.14 7.94,0 8.47,-2.65 11.38,-16.14l44.98 -223.04c0,-4.23 2.12,-6.09 4.76,-6.09l37.04 0.02z"/>
     <path class="fil0" d="M4386.99 1576.6c0.19,-0.05 0.37,-0.06 0.56,-0.06 2.78,0 5.03,2.25 5.03,5.03 0,0.19 -0.01,0.37 -0.03,0.56l0 74.61c12.85,-1.21 25.85,-1.89 38.8,-1.89 1.85,0 3.85,0.05 5.65,0.05 38.1,0 56.09,2.12 70.91,15.35 14.82,13.23 18.79,33.87 18.79,74.61l0 116.42c0.02,0.18 0.03,0.36 0.03,0.55 0,2.78 -2.25,5.03 -5.03,5.03 -0.19,0 -0.37,-0.01 -0.56,-0.03l-34.67 0.01c-0.19,0.01 -0.37,0.02 -0.56,0.02 -2.78,0 -5.03,-2.25 -5.03,-5.03 0,-0.19 0.01,-0.37 0.03,-0.56l0.01 -107.93c0,-29.1 -1.32,-42.6 -9.26,-50.54 -7.94,-7.94 -15.08,-8.47 -35.19,-8.47l-43.92 0.01 0 166.95c0.02,0.17 0.03,0.35 0.03,0.54 0,2.78 -2.25,5.03 -5.03,5.03 -0.19,0 -0.37,-0.01 -0.56,-0.03l-34.92 0.01c-0.21,0.01 -0.41,0.02 -0.61,0.02 -2.63,0 -4.76,-2.13 -4.76,-4.76 0,-0.28 0.03,-0.56 0.07,-0.83l0 -279.12c-0.02,-0.21 -0.03,-0.39 -0.03,-0.58 0,-2.78 2.25,-5.03 5.03,-5.03 0.19,0 0.37,0.01 0.56,0.03l34.66 0.03z"/>
     <path class="fil0" d="M4846.04 1847.79c-11.64,14.02 -36.78,20.9 -74.35,20.9 -37.57,0 -62.71,-6.88 -74.61,-20.9 -12.12,-21.61 -18.5,-46 -18.5,-70.76 0,-4.99 0.26,-10.04 0.78,-14.99 -0.54,-5.04 -0.82,-10.16 -0.82,-15.25 0,-24.77 6.39,-49.15 18.54,-70.74 11.91,-14.02 36.78,-21.17 74.61,-21.17 37.83,0 62.71,7.14 74.35,21.17 12.5,21.39 19.12,45.76 19.12,70.54 0,5.15 -0.29,10.34 -0.85,15.45 0.53,5.06 0.82,10.16 0.82,15.24 0,24.76 -6.6,49.12 -19.08,70.49l-0.01 0.02zm-74.34 -153.19c-19.84,0 -32.54,4.23 -38.1,12.96 -5.93,13.82 -8.98,28.78 -8.98,43.84 0,3.54 0.18,7.13 0.5,10.65 -0.31,3.47 -0.49,7.01 -0.49,10.51 0,15.03 3.07,29.92 8.97,43.73 5.56,8.47 18.26,12.44 38.1,12.44 19.84,0 32.28,-3.97 37.84,-12.44 5.89,-13.81 8.96,-28.7 8.96,-43.73 0,-3.5 -0.18,-7.04 -0.5,-10.51 0.25,-3.02 0.37,-6.09 0.37,-9.13 0,-15.62 -3.3,-31.11 -9.64,-45.38 -4.76,-8.71 -17.46,-12.94 -37.03,-12.94z"/>
     <path class="fil0" d="M5058.5 1576.07c0.29,-0.07 0.58,-0.1 0.87,-0.1 2.78,0 5.03,2.25 5.03,5.03 0,0.29 -0.03,0.58 -0.08,0.87l0 279.42c0,3.7 -1.85,5.56 -5.82,5.56l-34.66 -0.01c-0.19,0.01 -0.37,0.02 -0.56,0.02 -2.78,0 -5.03,-2.25 -5.03,-5.03 0,-0.19 0.01,-0.37 0.03,-0.56l0.01 -279.38c0,-3.97 1.85,-5.82 5.56,-5.82l34.65 0z"/>
     <path class="fil0" d="M5379.71 1675.81c14.02,16.14 17.99,39.16 18.26,82.02l0 11.38c0,7.67 -2.65,10.32 -12.96,10.32l-120.4 0c-0.18,1.95 -0.28,3.95 -0.28,5.93 0,12.07 3.5,23.89 10.07,34.01 9.19,6.55 20.21,10.07 31.49,10.07 1.85,0 3.71,-0.1 5.56,-0.28l65.08 0.01c0.2,-0.05 0.4,-0.06 0.6,-0.06 2.78,0 5.03,2.25 5.03,5.03 0,0.28 -0.02,0.56 -0.07,0.83l0 23.55c0.01,0.18 0.02,0.37 0.02,0.55 0,3.02 -2.31,5.54 -5.32,5.8 -20.4,2.8 -41.12,4.28 -61.74,4.28 -2.08,0 -4.21,-0.05 -6.23,-0.05 -4.17,0.55 -8.38,0.84 -12.58,0.84 -22.07,0 -43.47,-7.69 -60.48,-21.73 -12.11,-21.6 -18.49,-45.99 -18.49,-70.75 0,-4.99 0.26,-10.04 0.78,-14.99 -0.58,-5.24 -0.89,-10.57 -0.89,-15.87 0,-24.55 6.33,-48.72 18.35,-70.11 17.09,-14.2 38.64,-21.98 60.86,-21.98 4.15,0 8.33,0.28 12.43,0.81 37.04,-0.51 57.15,3.99 70.91,20.39zm-105.84 29.64c-6.06,10.56 -9.27,22.56 -9.27,34.76 0,2.07 0.1,4.17 0.28,6.23l87.05 0.02c0.16,-2.03 0.25,-4.06 0.25,-6.08 0,-12.22 -3.1,-24.26 -8.98,-34.96 -7.66,-7.2 -17.78,-11.22 -28.3,-11.22 -1.86,0 -3.73,0.13 -5.57,0.38 -2.11,-0.31 -4.25,-0.47 -6.39,-0.47 -10.84,0 -21.3,4.04 -29.33,11.32l0.26 0.02z"/>
     <path class="fil0" d="M5683.46 1658.88c3.7,0 5.56,2.65 5.56,6.09l0 22.49c0,3.7 -1.85,5.82 -6.09,5.82l-69.85 0c-16.67,0 -26.46,5.56 -26.46,16.67l0 4.5c0,9.53 6.88,17.2 20.9,22.49l49.74 18.26c22.99,5.33 39.24,25.83 39.24,49.43 0,1.95 -0.11,3.91 -0.33,5.84l0 5.03c0,41.01 -26.46,52.92 -79.38,52.92 -24.34,0 -49.21,0 -74.08,-3.44 -3.97,0 -5.82,-2.12 -5.82,-5.56l0 -23.55c0,-4.23 1.85,-6.09 6.09,-6.09l73.8 0.02c26.46,0 33.34,-3.18 33.34,-16.4l0 -3.7c0,-9.53 -5.03,-15.61 -21.7,-21.7l-50.01 -19.05c-22.68,-6.52 -38.33,-27.28 -38.33,-50.89 0,-1.65 0.08,-3.32 0.23,-4.96l0 -7.67c0,-38.36 28.84,-50.8 81.76,-50.8 0.89,-0.01 1.89,-0.01 2.78,-0.01 19.57,0 39.3,1.44 58.62,4.22l-0.01 0.04z"/>
     <path class="fil0" d="M6008.63 1717.09l0 132.29c0.01,0.19 0.02,0.4 0.02,0.61 0,4.71 -2.98,8.92 -7.42,10.48 -24.34,5.55 -49.27,8.39 -74.24,8.39 -3.74,0 -7.51,-0.08 -11.21,-0.2 -3.03,0.24 -6.08,0.37 -9.11,0.37 -18.42,0 -36.61,-4.29 -53.08,-12.52 -12,-11.07 -18.85,-26.68 -18.85,-43.01 0,-2.78 0.2,-5.57 0.59,-8.32 0,-45.77 22.49,-60.33 72.23,-60.33l55.3 0.02 0 -19.84c0,-21.17 -12.7,-30.43 -43.13,-30.43l-62.17 0c-4.5,0 -5.82,0 -5.82,-5.56l0 -23.28c0,-4.5 1.32,-4.76 5.29,-6.09 18.77,-3.21 37.89,-4.83 56.97,-4.83 1.91,0 3.86,0.04 5.72,0.04 65.1,0.03 88.91,19.61 88.91,62.21zm-45.77 60.85l-52.92 0c-20.9,0 -29.1,6.88 -29.1,26.46 0,19.58 9.53,26.46 38.36,26.46 1.2,0 2.48,0.02 3.69,0.02 13.34,0 26.68,-1.44 39.7,-4.26l0.27 -48.68z"/>
     <path class="fil0" d="M6207.86 1576.07c0.29,-0.07 0.58,-0.1 0.87,-0.1 2.78,0 5.03,2.25 5.03,5.03 0,0.29 -0.03,0.58 -0.08,0.87l0 279.42c0,3.7 -1.85,5.56 -5.82,5.56l-34.39 -0.01c-3.97,0 -5.82,-1.85 -5.82,-5.56l0 -279.39c-0.05,-0.31 -0.08,-0.6 -0.08,-0.89 0,-2.78 2.25,-5.03 5.03,-5.03 0.29,0 0.58,0.03 0.87,0.08l34.39 0.02z"/>
     <path class="fil0" d="M6528.54 1675.81c14.02,16.14 17.99,39.16 18.26,82.02l0 11.38c0,7.67 -2.65,10.32 -12.96,10.32l-120.4 0c-0.18,1.95 -0.28,3.95 -0.28,5.93 0,12.07 3.5,23.89 10.07,34.01 9.07,6.28 19.85,9.64 30.88,9.64 2.15,0 4.31,-0.13 6.44,-0.38l65.08 0.01c0.2,-0.05 0.4,-0.06 0.6,-0.06 2.78,0 5.03,2.25 5.03,5.03 0,0.28 -0.02,0.56 -0.07,0.83l0 23.55c0.01,0.18 0.02,0.37 0.02,0.55 0,3.02 -2.31,5.54 -5.32,5.8 -20.41,2.8 -41.13,4.28 -61.75,4.28 -2.08,0 -4.21,-0.05 -6.23,-0.05 -4.16,0.55 -8.37,0.84 -12.57,0.84 -22.07,0 -43.46,-7.69 -60.48,-21.73 -12.11,-21.6 -18.49,-45.99 -18.49,-70.75 0,-4.99 0.26,-10.04 0.78,-14.99 -0.58,-5.24 -0.89,-10.57 -0.89,-15.87 0,-24.55 6.33,-48.72 18.35,-70.11 17.09,-14.2 38.64,-21.98 60.86,-21.98 4.15,0 8.33,0.28 12.43,0.81 37.3,0.02 57.41,4.52 70.64,20.92zm-105.83 29.64c-6.07,10.56 -9.28,22.56 -9.28,34.76 0,2.07 0.1,4.17 0.28,6.23l88.37 0.02c0.17,-2.03 0.26,-4.06 0.26,-6.08 0,-12.22 -3.1,-24.26 -8.98,-34.96 -7.58,-7.21 -17.66,-11.25 -28.13,-11.25 -1.92,0 -3.85,0.14 -5.75,0.41 -2.4,-0.41 -4.85,-0.62 -7.29,-0.62 -10.92,0 -21.44,4.09 -29.49,11.46l0.01 0.03z"/>
     <path class="fil0" d="M2937.86 652.14c51.33,59.53 65.09,142.61 66.41,299.51l0 41.54c0,27.78 -9.53,37.57 -47.1,37.57l-439.73 0c1.59,73.55 14.02,121.97 36.25,145.52 22.23,23.55 68,34.66 135.73,34.66l238.12 0c0.86,-0.14 1.72,-0.2 2.57,-0.2 10.23,0 18.52,8.29 18.52,18.52 0,0.85 -0.06,1.71 -0.18,2.56l0 85.99c0.01,0.34 0.02,0.68 0.02,1.02 0,11.35 -8.36,20.96 -19.6,22.53 -76.74,10.06 -154.61,15.42 -232.26,15.42 -5.15,0 -10.73,0 -15.87,0 -134.67,0 -223.31,-26.46 -266.44,-76.46 -43.13,-50 -66.2,-156.69 -66.2,-313.32 0,-156.63 20.64,-262.2 63.76,-313.53 43.12,-51.33 132.29,-77.79 267.76,-77.79 135.47,0 208.23,16.67 258.24,76.46zm-387.09 107.95c-20.64,24.87 -31.75,74.88 -33.33,150.02l317.5 0c0,-74.88 -11.11,-124.88 -32.01,-150.02 -20.9,-25.14 -60.85,-38.63 -123.3,-38.63 -62.45,0 -107.96,12.44 -128.86,38.63z"/>
     <path class="fil0" d="M3826.87 351.05c58.47,45.77 87.58,138.64 87.58,275.96 0,116.68 -17.99,189.97 -55.56,241.3 -20.44,26.54 -48,46.81 -79.39,58.46 -68,26.46 -144.2,33.07 -275.96,33.07l-173.56 0.01 0 370.42c0,16.67 -3.97,20.64 -20.64,20.64l-138.38 0c-16.67,0 -20.9,-3.97 -20.9,-20.64l-0.01 -1018.12c0,-15.35 4.23,-17.99 20.9,-19.31 98.43,-7.14 209.3,-11.11 331.53,-11.11 157.97,-0.01 266.18,23.54 324.39,69.32zm-497.95 85.99l0 379.94 156.9 0c109.54,0 153.99,-2.65 196.85,-29.1 42.86,-26.45 51.33,-69.32 51.33,-156.63 0,-81.76 -16.67,-134.67 -48.42,-158.75 -31.75,-24.08 -98.43,-35.98 -199.76,-35.98l-156.9 0.52z"/>
     <path class="fil0" d="M4589.93 803.22l0 482.6c0.08,1.02 0.12,2.07 0.12,3.11 0,16.78 -10.69,31.7 -26.59,37.09 -70.64,20.9 -174.63,30.69 -311.94,30.69 -105.83,0 -181.77,-15.35 -226.22,-44.45 -44.45,-29.1 -66.41,-92.87 -66.41,-187.33 0,-167.75 81.76,-220.4 264.58,-220.4l201.09 0.02 0 -72.23c0,-77.79 -45.77,-110.86 -156.9,-110.86l-227.27 0c-16.67,0 -20.9,-4.23 -20.9,-20.9l0 -84.67c0,-16.67 4.23,-17.99 19.31,-22.23 69.76,-11.9 140.53,-18.11 211.29,-18.11 5.76,0 11.97,0.15 17.58,0.15 234.94,-0.02 322.26,72.21 322.26,227.52zm-167.75 221.98l-191.56 0c-76.2,0 -105.83,24.87 -105.83,92.87 0,77.79 34.66,98.43 139.96,98.43 4.88,0.06 9.99,0.14 14.93,0.14 48.33,0 96.57,-5.19 143.81,-15.24l-1.31 -176.2z"/>
     <path class="fil0" d="M4896.58 288.6c0.85,-0.11 1.71,-0.17 2.56,-0.17 10.23,0 18.52,8.29 18.52,18.52 0,0.85 -0.06,1.71 -0.18,2.56l0 1019.44c0.09,0.73 0.14,1.5 0.14,2.26 0,10.23 -8.29,18.52 -18.52,18.52 -0.84,0 -1.69,-0.06 -2.52,-0.17l-126.21 0.02c-0.93,0.13 -1.88,0.21 -2.83,0.21 -10.08,0 -18.26,-8.18 -18.26,-18.26 0,-0.87 0.06,-1.74 0.19,-2.6l0 -1019.42c-0.12,-0.85 -0.18,-1.71 -0.18,-2.56 0,-10.23 8.29,-18.52 18.52,-18.52 0.85,0 1.71,0.06 2.56,0.18l126.21 -0.01z"/>
     <path class="fil0" d="M5232.07 288.6c0.85,-0.11 1.71,-0.17 2.56,-0.17 10.23,0 18.52,8.29 18.52,18.52 0,0.85 -0.06,1.71 -0.18,2.56l0 1019.44c0.13,0.84 0.19,1.71 0.19,2.58 0,10.08 -8.18,18.26 -18.26,18.26 -0.95,0 -1.9,-0.08 -2.83,-0.22l-126.21 0.01c-0.85,0.11 -1.7,0.17 -2.56,0.17 -10.08,0 -18.26,-8.18 -18.26,-18.26 0,-0.86 0.06,-1.71 0.18,-2.56l0.01 -1019.42c-0.15,-0.94 -0.23,-1.89 -0.23,-2.84 0,-10.08 8.18,-18.26 18.26,-18.26 0.87,0 1.74,0.06 2.6,0.19l126.21 0z"/>
     <path class="fil0" d="M5982.7 652.14c51.33,59.53 65.09,142.61 66.68,299.51l0 41.54c0,27.78 -9.79,37.57 -47.36,37.57l-439.74 0c1.59,73.55 14.02,121.97 36.25,145.52 22.23,23.55 68,34.66 135.73,34.66l238.12 0c0.85,-0.14 1.71,-0.2 2.56,-0.2 10.23,0 18.52,8.29 18.52,18.52 0,0.85 -0.06,1.71 -0.18,2.56l0 85.99c0.01,0.34 0.02,0.68 0.02,1.02 0,11.35 -8.36,20.96 -19.6,22.53 -76.73,10.06 -154.6,15.42 -232.25,15.42 -5.15,0 -10.73,0 -15.87,0 -134.67,0 -223.31,-26.46 -266.45,-76.46 -43.13,-50 -65.09,-156.63 -65.09,-313.27 0,-156.64 20.64,-262.2 63.76,-313.53 43.13,-51.33 132.3,-77.79 267.77,-77.79 135.47,0 207.13,16.62 257.13,76.41zm-387.08 107.95c-20.64,25.22 -31.75,75.23 -33.34,150.02l317.5 0c-1.32,-74.88 -11.11,-124.88 -32.01,-150.02 -20.9,-25.14 -60.85,-38.63 -123.3,-38.63 -62.45,0 -107.95,12.44 -128.85,38.63z"/>
     <path class="fil0" d="M6355.77 370.36c15.35,-3.97 23.55,1.59 23.55,19.58l0 194.2 137.31 0c15.35,0 22.23,6.88 22.23,20.64l0 86.78c0,15.08 -6.88,21.96 -22.23,21.96l-137.32 0 0 423.33c0,61.12 18.26,73.55 85.99,73.55l61.12 0.01c15.35,0 23.55,6.88 23.55,19.58l0 91.55c0.06,0.62 0.09,1.29 0.09,1.94 0,11.82 -8.96,21.73 -20.72,22.9 -32.5,6.3 -65.56,9.68 -98.69,9.81 -7.75,0.42 -15.67,0.63 -23.49,0.63 -33.57,0 -67.2,-3.99 -99.83,-11.75 -61.12,-16.67 -91.55,-56.89 -97.1,-158.75l0.01 -472 -79.37 0c-15.35,0 -22.23,-6.88 -22.23,-21.96l0 -87.58c0,-13.76 6.88,-20.64 22.23,-20.64l79.37 0 0 -158.75c-0.02,-0.37 -0.03,-0.75 -0.03,-1.13 0,-10.98 8.41,-20.15 19.35,-21.09l126.21 -32.81z"/>
     <path class="fil0" d="M956.38 2146.77c-14.85,-0.06 -29.52,-3.51 -42.85,-10.06l-867.31 -433.64c-32.31,-16.26 -52.78,-49.32 -52.91,-85.49l-0.01 -1084.77c0.01,-0.04 0.01,-0.12 0.01,-0.17 0,-36.3 20.48,-69.52 52.92,-85.82l867.29 -433.12c13.25,-6.52 27.84,-9.94 42.61,-9.94 14.77,0 29.36,3.42 42.6,9.95l867.83 433.64c32.44,16.3 52.92,49.52 52.92,85.82 0,0.05 0,0.13 0,0.18l0 1084.26c0,0.02 0,0.1 0,0.15 0,36.3 -20.48,69.52 -52.92,85.82l-867.84 433.14c-13.16,6.46 -27.65,9.91 -42.33,10.04l-0.01 0.01zm-770.46 -589.22l770.46 385.23 770.74 -385.23 0 -218.02 -728.4 363.54c-13.31,6.76 -28.05,10.3 -42.99,10.3 -14.94,0 -29.68,-3.54 -42.99,-10.31l-432.87 -217.75c-32.42,-16.31 -52.9,-49.53 -52.9,-85.83 0,-0.05 0,-0.13 0,-0.18l-0.02 -649.26c0.02,-0.05 0.02,-0.13 0.02,-0.18 0,-36.3 20.48,-69.52 52.92,-85.82l433.65 -216.69c13.31,-6.78 28.05,-10.32 42.99,-10.32 14.94,0 29.68,3.54 42.99,10.31l433.39 217.77c32.44,16.22 52.93,49.39 52.93,85.65 0,0.11 0,0.23 0,0.34l-0.02 215.63c0.02,0.09 0.02,0.2 0.02,0.28 0,36.34 -20.48,69.62 -52.92,85.99l-429.18 214.56c-14.17,7.38 -29.94,11.26 -45.94,11.26 -30.36,0 -59.08,-13.93 -77.88,-37.75 -12.74,-16.75 -19.65,-37.24 -19.65,-58.3 0,-36.49 20.64,-69.85 53.26,-86.15l380.22 -190.24 -0.01 -96.81 -337.36 -168.54 -337.08 168.54 0 531.28 337.08 168.54 770.74 -385.23 0 -531.29 -770.74 -385.23 -770.46 385.23 0 964.68z"/>
    </g>
   </g>
  </g>
 </g>
</svg>
